<svg id="Group_109" data-name="Group 109" xmlns="http://www.w3.org/2000/svg" xmlns:xlink="http://www.w3.org/1999/xlink" width="1372.001" height="215.338" viewBox="0 0 1372.001 215.338">
  <defs>
    <clipPath id="clip-path">
      <rect id="Rectangle_74" data-name="Rectangle 74" width="1372.001" height="215.338" fill="#fff"/>
    </clipPath>
  </defs>
  <g id="Group_108" data-name="Group 108" clip-path="url(#clip-path)">
    <path id="Path_101" data-name="Path 101" d="M67.44,130.714V95.821h73.69V212.734H94.78v-1.041c0-12.5,3.646-25.258,7.031-37.235H99.988c-8.333,31.246-24.737,40.88-45.567,40.88H53.9c-34.892,0-53.9-27.6-53.9-80.458V83.844C0,29.945,25,0,71.345,0h.26c42.443,0,65.357,21.613,69,61.972l.521,22.914H94.78l-.52-21.611c-2.344-13.8-9.634-21.092-22.914-21.092h-.52c-16.665,0-24.737,13.541-24.737,36.714v57.025c0,25,9.114,38.277,26.039,38.277h.26c14.061,0,21.872-10.677,21.872-27.341V130.714Z" transform="translate(0 0)" fill="#fff"/>
    <path id="Path_102" data-name="Path 102" d="M161.588,213.1,205.594,3.225h65.617L315.476,213.1H268.347l-8.072-44H216.79l-8.072,44Zm62.233-86.968h29.424l-13.8-81.761H237.62Z" transform="translate(-18.121 -0.362)" fill="#fff"/>
    <path id="Path_103" data-name="Path 103" d="M338.136,213.1V3.225h45.306V171.174h57.807V213.1Z" transform="translate(-37.92 -0.362)" fill="#fff"/>
    <path id="Path_104" data-name="Path 104" d="M462.48,213.1V3.225h45.306V171.174h57.807V213.1Z" transform="translate(-51.864 -0.362)" fill="#fff"/>
    <path id="Path_105" data-name="Path 105" d="M586.822,213.1V3.225h575.764v40.88H631.608v41.4h526.031v38.8H631.608v47.911h530.978V213.1Z" transform="translate(-65.808 -0.362)" fill="#fff"/>
    <path id="Path_106" data-name="Path 106" d="M1376.577,200.337c1.041,6.249,1.563,9.114,3.385,11.457v1.3h-45.829c-1.823-3.384-2.343-5.989-3.124-13.8l-4.947-45.828c-2.083-12.237-6.249-15.622-19.269-15.622h-16.143V213.1h-44.787V3.225h74.47c35.673,0,54.42,16.665,54.42,49.213V67.28c0,28.642-15.882,44.525-40.88,45.828v1.3c22.133,2.083,32.288,13.28,36.454,40.359ZM1329.707,60.25c0-10.415-6.77-16.665-19.007-16.665h-20.05v52.6h18.487c13.019,0,20.57-6.25,20.57-17.707Z" transform="translate(-139.715 -0.362)" fill="#fff"/>
    <path id="Path_107" data-name="Path 107" d="M1429.913,213.1V147.74L1377.836,3.225h49.734l23.956,96.6h1.562l23.955-96.6h49.474L1474.7,147.74V213.1Z" transform="translate(-154.516 -0.362)" fill="#fff"/>
  </g>
</svg>
