<svg id="Group_101" data-name="Group 101" xmlns="http://www.w3.org/2000/svg" xmlns:xlink="http://www.w3.org/1999/xlink" width="1419" height="581.85" viewBox="0 0 1419 581.85">
  <defs>
    <clipPath id="clip-path">
      <rect id="Rectangle_69" data-name="Rectangle 69" width="1419" height="581.85" fill="none"/>
    </clipPath>
  </defs>
  <g id="Group_100" data-name="Group 100" clip-path="url(#clip-path)">
    <path id="Path_90" data-name="Path 90" d="M10.3,261.908V.293h90.559c43.17,0,64.917,20.125,64.917,56.153V74.3c0,28.889-16.23,49.337-44.469,52.583v1.948c32.783,2.271,51.284,21.1,51.284,53.88v19.8c0,37-24.669,59.4-69.135,59.4ZM66.13,107.081H88.851c15.256,0,22.072-5.843,22.072-18.825V67.807c0-11.685-7.141-16.878-22.4-16.878H66.13Zm0,103.867H92.422c15.58,0,23.37-5.843,23.37-18.826V171.35c0-12.011-8.44-17.528-23.37-17.528H66.13Z" transform="translate(1.1 0.031)" fill="#fff"/>
    <path id="Path_91" data-name="Path 91" d="M165.147,261.908V.293h138.6v50.96H220.975v51.609h76.6v48.362h-76.6v59.724h82.769v50.96Z" transform="translate(17.631 0.031)" fill="#fff"/>
    <rect id="Rectangle_68" data-name="Rectangle 68" width="55.827" height="261.615" transform="translate(388.88 0.324)" fill="#fff"/>
    <path id="Path_92" data-name="Path 92" d="M415.885,261.908V.293h80.5l51.934,198.322h2.6c-1.624-28.239-2.922-56.154-2.922-79.524V.293h51.284V261.908h-80.5L467.493,60.991h-2.6c1.3,26.291,2.922,56.153,2.922,80.172V261.908Z" transform="translate(44.401 0.031)" fill="#fff"/>
    <path id="Path_93" data-name="Path 93" d="M638.471,52.227V.293H795.894V52.227H745.583V261.908H689.431V52.227Z" transform="translate(68.164 0.031)" fill="#fff"/>
    <path id="Path_94" data-name="Path 94" d="M787.156,261.94V0l56.153.324v109.06h50.96V.324h56.154V261.94H894.269V161.968h-50.96V261.94Z" transform="translate(84.038 0)" fill="#fff"/>
    <path id="Path_95" data-name="Path 95" d="M949.04,261.908V.293h138.6v50.96h-82.769v51.609h76.6v48.362h-76.6v59.724h82.769v50.96Z" transform="translate(101.321 0.031)" fill="#fff"/>
    <path id="Path_96" data-name="Path 96" d="M86.014,551.617c-53.556,0-80.5-22.721-85.366-70.436L0,457.162H57.451l.324,21.748c1.624,14.606,11.686,22.071,27.915,22.071h.65c16.554,0,25.967-6.167,25.967-18.5V465.927c0-11.685-5.518-17.853-23.045-21.422l-30.187-6.492c-37.652-7.141-56.8-30.186-56.8-64.592v-21.1c0-44.793,28.888-69.136,79.847-69.136h.649c51.934,0,79.2,24.343,83.419,69.461l.649,25.317h-56.8l-.65-23.371c-.974-12.982-10.063-20.447-26.291-20.447h-.65c-13.956,0-23.045,6.167-23.045,18.5v18.175c0,12.011,7.789,18.826,26.291,22.4l23.045,4.543c40.573,7.465,61.347,29.213,61.347,64.593v19.475c0,45.443-27.914,69.786-83.418,69.786Z" transform="translate(0 30.233)" fill="#ffe5c3"/>
    <path id="Path_97" data-name="Path 97" d="M163.643,548.058V286.118l56.153.324V395.5h50.96V286.443h56.154V548.058H270.755V448.086H219.8v99.972Z" transform="translate(17.471 30.546)" fill="#ffe5c3"/>
    <path id="Path_98" data-name="Path 98" d="M314.675,548.026l54.856-261.615h81.8L506.5,548.026h-58.75l-10.06-54.854H383.487l-10.062,54.854Zm77.576-108.411h36.678L411.727,337.7h-2.273Z" transform="translate(33.595 30.578)" fill="#ffe5c3"/>
    <path id="Path_99" data-name="Path 99" d="M658.708,385.766v62.968c0,67.514-28.563,99.323-89.26,99.323H491.223V286.118h78.225c60.7,0,89.26,32.135,89.26,99.648m-57.451-4.22c0-28.564-11.361-42.521-35.38-42.521H547.05V495.151h18.827c23.693,0,35.38-13.957,35.38-42.845Z" transform="translate(52.444 30.546)" fill="#ffe5c3"/>
    <path id="Path_100" data-name="Path 100" d="M653.983,548.027V286.411h695.2v50.96H709.812v51.609h639.367v48.362H709.812v59.724h639.367v50.96Z" transform="translate(69.82 30.578)" fill="#ffe5c3"/>
  </g>
</svg>
