<svg xmlns="http://www.w3.org/2000/svg" xmlns:xlink="http://www.w3.org/1999/xlink" width="201.73" height="57.246" viewBox="0 0 201.73 57.246">
  <defs>
    <clipPath id="clip-path">
      <rect id="Rectangle_3" data-name="Rectangle 3" width="111.539" height="6.61" fill="#efc184"/>
    </clipPath>
  </defs>
  <g id="Group_114" data-name="Group 114" transform="translate(-122.147 -90)">
    <g id="Group_1" data-name="Group 1" transform="translate(122.147 90)">
      <g id="Group_3" data-name="Group 3" transform="translate(0)">
        <path id="Path_1" data-name="Path 1" d="M69.746,87.626H55.274V46.83H69.746q10.481,0,16.126,5.521T91.518,67.23q0,9.357-5.646,14.874T69.746,87.626M63.26,80.267h6.486q6.864,0,10.261-3.432t3.4-9.6q0-6.115-3.4-9.546T69.746,54.255H63.26Z" transform="translate(-55.274 -46.019)" fill="#fff"/>
        <path id="Path_2" data-name="Path 2" d="M114.8,69.182V71.8H89.541v.123A8.582,8.582,0,0,0,92.6,76.855a9.013,9.013,0,0,0,5.738,1.81,9.492,9.492,0,0,0,6.371-1.961l.778-.715L111.7,79.05a13.908,13.908,0,0,1-3.918,3.73,16.919,16.919,0,0,1-9.452,2.62,16.284,16.284,0,0,1-11.943-4.582,15.66,15.66,0,0,1-4.65-11.635,15.655,15.655,0,0,1,4.65-11.635,16.274,16.274,0,0,1,11.943-4.585,16.089,16.089,0,0,1,11.851,4.585A15.705,15.705,0,0,1,114.8,69.182M98.335,59.7a9.265,9.265,0,0,0-5.49,1.59,8.212,8.212,0,0,0-3.117,4.461v.124h17.216v-.124a8.317,8.317,0,0,0-3.15-4.428,9.15,9.15,0,0,0-5.46-1.623" transform="translate(-42.158 -42.981)" fill="#fff"/>
        <path id="Path_3" data-name="Path 3" d="M128.142,56.733a10.651,10.651,0,0,0-1.089-1.026,13.458,13.458,0,0,0-8.825-2.744,13.486,13.486,0,0,0-8.922,2.809,8.985,8.985,0,0,0-3.366,7.234,8.87,8.87,0,0,0,1.31,5.022,6.806,6.806,0,0,0,3.305,2.713,20.872,20.872,0,0,0,4.289,1.086c1.527.223,2.949.435,4.27.628a10.884,10.884,0,0,1,3.293.944,2.06,2.06,0,0,1,1.312,1.9q0,3.618-5.553,3.615-3.769,0-4.89-1.771L106.4,79.676a9.884,9.884,0,0,0,2.563,2.948q3.524,2.777,9.325,2.777a14.552,14.552,0,0,0,9.358-2.84A8.887,8.887,0,0,0,131.2,75.3a9.053,9.053,0,0,0-1.3-5.067,6.889,6.889,0,0,0-3.29-2.756,20.393,20.393,0,0,0-4.274-1.122q-2.295-.352-4.274-.658a11.326,11.326,0,0,1-3.31-.968,2.035,2.035,0,0,1-1.327-1.856,2.923,2.923,0,0,1,1.279-2.49,6.145,6.145,0,0,1,3.649-.929,5.941,5.941,0,0,1,3.4.872,3.619,3.619,0,0,1,.794.734Z" transform="translate(-30.168 -42.98)" fill="#fff"/>
        <path id="Path_4" data-name="Path 4" d="M129.706,53.615a3.618,3.618,0,0,1-3.637-3.64,3.57,3.57,0,0,1,1.057-2.628,3.7,3.7,0,0,1,5.185,0,3.616,3.616,0,0,1,1.035,2.628,3.553,3.553,0,0,1-1.035,2.578,3.5,3.5,0,0,1-2.605,1.062M126.048,87.9V57.078h7.424V87.937Z" transform="translate(-20.204 -46.288)" fill="#fff"/>
        <path id="Path_5" data-name="Path 5" d="M159.823,82.407v-2.5H159.7q-3.179,5.117-10.288,5.116A16.486,16.486,0,0,1,142.17,83.4a13.773,13.773,0,0,1-5.678-5.335,16.5,16.5,0,0,1-2.308-8.888,15.651,15.651,0,0,1,4.65-11.635,16.285,16.285,0,0,1,11.943-4.585q7.36,0,11.915,4.524t4.555,11.945V82.159q0,8.358-4.522,12.38T150.9,98.564A18.285,18.285,0,0,1,140.8,95.91a12.255,12.255,0,0,1-2.8-2.465l5.436-4.241q2.133,2.93,7.467,2.934,8.919,0,8.919-9.731m0-13.225a9.254,9.254,0,0,0-2.495-6.706,8.686,8.686,0,0,0-6.552-2.589,8.776,8.776,0,0,0-6.577,2.589,9.191,9.191,0,0,0-2.529,6.706,8.651,8.651,0,0,0,2.495,6.486,10.118,10.118,0,0,0,13.164,0,8.639,8.639,0,0,0,2.495-6.486" transform="translate(-16.172 -42.981)" fill="#fff"/>
        <path id="Path_6" data-name="Path 6" d="M190.034,84.63V68.556q0-7.609-4.119-11.6t-11.106-3.992q-6.983,0-11.1,4.024t-4.116,11.569V84.588h7.424V68.556q0-4.3,2.089-6.485a8.554,8.554,0,0,1,11.417,0q2.084,2.183,2.089,6.485V84.548Z" transform="translate(-3.582 -42.981)" fill="#fff"/>
        <path id="Path_7" data-name="Path 7" d="M186.29,54.145h-1.838v5.643h-1.365V54.145h-1.856V52.962h5.059Zm1.092-1.183h1.165L191,57.985l2.439-5.023h1.146v6.826H193.3v-3.8l-1.911,3.8h-.818L188.674,56v3.787h-1.292Z" transform="translate(7.141 -42.981)" fill="#fff"/>
      </g>
    </g>
    <g id="Group_2" data-name="Group 2" transform="translate(122.147 140.636)">
      <g id="Group_4" data-name="Group 4" transform="translate(0 0)" clip-path="url(#clip-path)">
        <path id="Path_8" data-name="Path 8" d="M.011.293C-.026.156.035.088.182.088H1.2c.109,0,.18.068.212.205L2.383,4.4,3.578.275A.229.229,0,0,1,3.82.088h.861A.226.226,0,0,1,4.92.275L6.117,4.4l.97-4.11C7.124.156,7.2.088,7.312.088H8.328c.146,0,.2.068.162.205l-1.57,6a.233.233,0,0,1-.239.205H5.707a.219.219,0,0,1-.223-.178L4.253,2.139,3.024,6.316a.219.219,0,0,1-.228.178H1.829a.24.24,0,0,1-.249-.205Z" transform="translate(0 0.015)" fill="#efc184"/>
        <path id="Rectangle_1" data-name="Rectangle 1" d="M.175,0h.944a.174.174,0,0,1,.174.174V6.231a.174.174,0,0,1-.174.174H.175A.175.175,0,0,1,0,6.23V.175A.175.175,0,0,1,.175,0Z" transform="translate(10.967 0.103)" fill="#efc184"/>
        <path id="Path_9" data-name="Path 9" d="M13.2,6.493A.18.18,0,0,1,13,6.288v-6a.182.182,0,0,1,.205-.2h.7a.261.261,0,0,1,.2.121L17.372,4.06V.292a.18.18,0,0,1,.2-.2h.837a.182.182,0,0,1,.207.2v6a.181.181,0,0,1-.207.205H17.7a.3.3,0,0,1-.223-.137l-3.237-3.9V6.288a.18.18,0,0,1-.205.205Z" transform="translate(2.255 0.015)" fill="#efc184"/>
        <path id="Path_10" data-name="Path 10" d="M20.557,6.493a.179.179,0,0,1-.2-.205v-6a.181.181,0,0,1,.2-.2H22.65A3.262,3.262,0,0,1,25.034,1a3.083,3.083,0,0,1,.924,2.3,3.071,3.071,0,0,1-.924,2.286,3.276,3.276,0,0,1-2.383.914Zm1.088-1.151H22.65a1.882,1.882,0,0,0,1.454-.59,2.1,2.1,0,0,0,.532-1.459A2.125,2.125,0,0,0,24.1,1.832,1.875,1.875,0,0,0,22.65,1.24H21.645Z" transform="translate(3.532 0.015)" fill="#efc184"/>
        <path id="Path_11" data-name="Path 11" d="M30.441,6.61a3.188,3.188,0,0,1-2.348-.965,3.182,3.182,0,0,1-.958-2.339A3.188,3.188,0,0,1,28.093.963a3.343,3.343,0,0,1,4.7,0,3.188,3.188,0,0,1,.958,2.344,3.182,3.182,0,0,1-.958,2.339,3.188,3.188,0,0,1-2.348.965m0-1.154a1.817,1.817,0,0,0,1.425-.638,2.248,2.248,0,0,0,.556-1.511A2.244,2.244,0,0,0,31.865,1.8a1.813,1.813,0,0,0-1.425-.642,1.789,1.789,0,0,0-1.418.642,2.2,2.2,0,0,0-.563,1.511,2.246,2.246,0,0,0,.554,1.511,1.825,1.825,0,0,0,1.427.638" transform="translate(4.708 0)" fill="#efc184"/>
        <path id="Path_12" data-name="Path 12" d="M34.51.293c-.034-.137.027-.205.171-.205H35.7c.111,0,.18.068.215.205l.973,4.11L38.08.275a.229.229,0,0,1,.242-.187h.861a.226.226,0,0,1,.239.187L40.62,4.4l.97-4.11c.034-.137.113-.205.224-.205h1.014c.148,0,.2.068.164.205l-1.573,6a.232.232,0,0,1-.237.205h-.974a.219.219,0,0,1-.223-.178L38.755,2.139,37.526,6.316a.22.22,0,0,1-.23.178h-.965a.24.24,0,0,1-.249-.205Z" transform="translate(5.986 0.015)" fill="#efc184"/>
        <path id="Path_13" data-name="Path 13" d="M47.561,5.646A3.191,3.191,0,0,1,46.6,3.307,3.2,3.2,0,0,1,47.561.964,3.193,3.193,0,0,1,49.909,0,3.123,3.123,0,0,1,51,.2,2.445,2.445,0,0,1,51.8.674.17.17,0,0,1,51.812.9l-.442.665c-.06.1-.146.111-.242.034a1.889,1.889,0,0,0-1.219-.445,1.788,1.788,0,0,0-1.418.643,2.2,2.2,0,0,0-.563,1.511,2.211,2.211,0,0,0,.563,1.511,1.791,1.791,0,0,0,1.418.638,1.949,1.949,0,0,0,1.219-.442c.1-.08.182-.07.242.032l.442.668a.166.166,0,0,1-.016.222A2.252,2.252,0,0,1,51,6.4a2.846,2.846,0,0,1-1.094.215,3.184,3.184,0,0,1-2.348-.965" transform="translate(8.086 0)" fill="#efc184"/>
        <path id="Path_14" data-name="Path 14" d="M56.154,6.61a3.188,3.188,0,0,1-2.348-.965,3.182,3.182,0,0,1-.958-2.339A3.188,3.188,0,0,1,53.806.963a3.343,3.343,0,0,1,4.7,0,3.188,3.188,0,0,1,.958,2.344A3.182,3.182,0,0,1,58.5,5.646a3.184,3.184,0,0,1-2.348.965m0-1.154a1.825,1.825,0,0,0,1.427-.638,2.246,2.246,0,0,0,.554-1.511A2.242,2.242,0,0,0,57.581,1.8a1.821,1.821,0,0,0-1.427-.642,1.789,1.789,0,0,0-1.418.642,2.216,2.216,0,0,0-.563,1.511,2.258,2.258,0,0,0,.554,1.511,1.825,1.825,0,0,0,1.427.638" transform="translate(9.17 0)" fill="#efc184"/>
        <path id="Path_15" data-name="Path 15" d="M62.573,6.493a.247.247,0,0,1-.256-.169L60.079.292c-.041-.134,0-.2.136-.2h.88a.272.272,0,0,1,.283.2L63.033,5.1,64.7.292a.269.269,0,0,1,.273-.2h.887c.137,0,.181.07.137.2L63.761,6.324a.251.251,0,0,1-.257.169Z" transform="translate(10.422 0.015)" fill="#efc184"/>
        <path id="Path_16" data-name="Path 16" d="M67.394,6.493a.18.18,0,0,1-.205-.205v-6a.182.182,0,0,1,.205-.2h3.672a.182.182,0,0,1,.205.2v.744a.182.182,0,0,1-.205.205H68.48V2.6h2.245a.182.182,0,0,1,.205.205V3.53a.182.182,0,0,1-.205.205H68.48V5.342h2.671a.179.179,0,0,1,.205.2v.743a.179.179,0,0,1-.205.205Z" transform="translate(11.658 0.015)" fill="#efc184"/>
        <path id="Path_17" data-name="Path 17" d="M77.816,6.289c.058.136-.008.2-.121.2h-1.05a.265.265,0,0,1-.246-.146L75.236,4.086h-.854v2.2a.181.181,0,0,1-.205.2H73.3a.181.181,0,0,1-.2-.2v-6a.181.181,0,0,1,.2-.205h2.512A1.838,1.838,0,0,1,77.2.678a1.967,1.967,0,0,1,.566,1.409,2,2,0,0,1-1.188,1.846ZM74.382,1.242V2.985H75.6a.857.857,0,0,0,.855-.873.855.855,0,0,0-.855-.871Z" transform="translate(12.683 0.015)" fill="#efc184"/>
        <path id="Rectangle_2" data-name="Rectangle 2" d="M.175,0h.944a.174.174,0,0,1,.174.174V6.228a.177.177,0,0,1-.177.177H.175A.175.175,0,0,1,0,6.23V.175A.175.175,0,0,1,.175,0Z" transform="translate(93.194 0.103)" fill="#efc184"/>
        <path id="Path_18" data-name="Path 18" d="M83.271,6.493a.18.18,0,0,1-.205-.205v-6a.182.182,0,0,1,.205-.2h.7a.261.261,0,0,1,.2.121L87.441,4.06V.292a.18.18,0,0,1,.2-.2h.837a.182.182,0,0,1,.207.2v6a.181.181,0,0,1-.207.205h-.708a.3.3,0,0,1-.223-.137l-3.237-3.9V6.288a.18.18,0,0,1-.205.205Z" transform="translate(14.413 0.015)" fill="#efc184"/>
        <path id="Path_19" data-name="Path 19" d="M94.624,4.791V4.076h-1.05a.18.18,0,0,1-.2-.205v-.7a.18.18,0,0,1,.2-.205h2.119a.18.18,0,0,1,.2.205L95.9,5a1.4,1.4,0,0,1-.709,1.12,2.967,2.967,0,0,1-1.744.494A3.188,3.188,0,0,1,91.1,5.646a3.189,3.189,0,0,1-.958-2.339A3.2,3.2,0,0,1,91.1.965,3.2,3.2,0,0,1,93.446,0,3.092,3.092,0,0,1,94.54.205a2.444,2.444,0,0,1,.8.469A.166.166,0,0,1,95.349.9l-.442.665c-.06.1-.144.113-.237.035a1.9,1.9,0,0,0-1.224-.445,1.784,1.784,0,0,0-1.418.643,2.2,2.2,0,0,0-.563,1.51,2.209,2.209,0,0,0,.563,1.511,1.788,1.788,0,0,0,1.418.638c.752,0,1.178-.3,1.178-.665" transform="translate(15.64 0)" fill="#efc184"/>
      </g>
    </g>
  </g>
</svg>
